<mxfile host="app.diagrams.net" modified="2022-01-19T19:54:05.730Z" agent="5.0 (Windows)" etag="MT3hx3PnoQyXkAgYchzr" version="16.2.7" type="github">
  <diagram id="IryxoBncAi3wepzYXGrq" name="Page-1">
    <mxGraphModel dx="1043" dy="468" grid="1" gridSize="10" guides="1" tooltips="1" connect="1" arrows="1" fold="1" page="1" pageScale="1" pageWidth="850" pageHeight="1100" math="0" shadow="0">
      <root>
        <mxCell id="0" />
        <mxCell id="1" parent="0" />
        <mxCell id="BsyIwO_-xOanRZQxcdga-1" value="" style="shape=cylinder3;whiteSpace=wrap;html=1;boundedLbl=1;backgroundOutline=1;size=15;labelBackgroundColor=#CCCCCC;fontSize=13;strokeColor=#666666;strokeWidth=1;fillColor=none;fontColor=#333333;" vertex="1" parent="1">
          <mxGeometry x="80" y="220" width="200" height="230" as="geometry" />
        </mxCell>
        <mxCell id="BsyIwO_-xOanRZQxcdga-3" value="&lt;div&gt;tinder geo1&lt;/div&gt;&lt;div&gt;shard 0&lt;/div&gt;&lt;div&gt;primary&lt;br&gt;&lt;/div&gt;" style="shape=cylinder3;whiteSpace=wrap;html=1;boundedLbl=1;backgroundOutline=1;size=15;labelBackgroundColor=#CCCCCC;fontSize=13;strokeColor=#666666;strokeWidth=1;fillColor=#CCCCCC;fontColor=#333333;" vertex="1" parent="1">
          <mxGeometry x="80" y="250" width="80" height="90" as="geometry" />
        </mxCell>
        <mxCell id="BsyIwO_-xOanRZQxcdga-4" value="Coordinating Node" style="shape=cylinder3;whiteSpace=wrap;html=1;boundedLbl=1;backgroundOutline=1;size=15;labelBackgroundColor=#CCCCCC;fontSize=13;strokeColor=#666666;strokeWidth=1;fillColor=#CCCCCC;fontColor=#333333;" vertex="1" parent="1">
          <mxGeometry x="90" y="110" width="120" height="60" as="geometry" />
        </mxCell>
        <mxCell id="BsyIwO_-xOanRZQxcdga-6" value="Coordinating Node" style="shape=cylinder3;whiteSpace=wrap;html=1;boundedLbl=1;backgroundOutline=1;size=15;labelBackgroundColor=#CCCCCC;fontSize=13;strokeColor=#666666;strokeWidth=1;fillColor=#CCCCCC;fontColor=#333333;" vertex="1" parent="1">
          <mxGeometry x="280" y="110" width="120" height="60" as="geometry" />
        </mxCell>
        <mxCell id="BsyIwO_-xOanRZQxcdga-7" value="Coordinating Node" style="shape=cylinder3;whiteSpace=wrap;html=1;boundedLbl=1;backgroundOutline=1;size=15;labelBackgroundColor=#CCCCCC;fontSize=13;strokeColor=#666666;strokeWidth=1;fillColor=#CCCCCC;fontColor=#333333;" vertex="1" parent="1">
          <mxGeometry x="470" y="110" width="120" height="60" as="geometry" />
        </mxCell>
        <mxCell id="BsyIwO_-xOanRZQxcdga-9" value="" style="rounded=1;whiteSpace=wrap;html=1;labelBackgroundColor=none;fontSize=13;strokeColor=#000000;strokeWidth=1;fillColor=none;dashed=1;" vertex="1" parent="1">
          <mxGeometry x="60" y="100" width="580" height="80" as="geometry" />
        </mxCell>
        <mxCell id="BsyIwO_-xOanRZQxcdga-10" value="Master Node" style="shape=cylinder3;whiteSpace=wrap;html=1;boundedLbl=1;backgroundOutline=1;size=15;labelBackgroundColor=#CCCCCC;fontSize=13;strokeColor=#666666;strokeWidth=1;fillColor=#CCCCCC;fontColor=#333333;" vertex="1" parent="1">
          <mxGeometry x="300" y="10" width="100" height="60" as="geometry" />
        </mxCell>
        <mxCell id="BsyIwO_-xOanRZQxcdga-11" value="" style="shape=cylinder3;whiteSpace=wrap;html=1;boundedLbl=1;backgroundOutline=1;size=15;labelBackgroundColor=#CCCCCC;fontSize=13;strokeColor=#666666;strokeWidth=1;fillColor=none;fontColor=#333333;" vertex="1" parent="1">
          <mxGeometry x="400" y="220" width="200" height="230" as="geometry" />
        </mxCell>
        <mxCell id="BsyIwO_-xOanRZQxcdga-12" value="&lt;div&gt;tinder geo22&lt;/div&gt;&lt;div&gt;shard 0&lt;/div&gt;&lt;div&gt;replica&lt;br&gt;&lt;/div&gt;" style="shape=cylinder3;whiteSpace=wrap;html=1;boundedLbl=1;backgroundOutline=1;size=15;labelBackgroundColor=#CCCCCC;fontSize=13;strokeColor=#666666;strokeWidth=1;fillColor=#CCCCCC;fontColor=#333333;" vertex="1" parent="1">
          <mxGeometry x="200" y="250" width="80" height="90" as="geometry" />
        </mxCell>
        <mxCell id="BsyIwO_-xOanRZQxcdga-13" value="&lt;div&gt;tinder geo12&lt;/div&gt;&lt;div&gt;shard 0&lt;/div&gt;&lt;div&gt;replica&lt;br&gt;&lt;/div&gt;" style="shape=cylinder3;whiteSpace=wrap;html=1;boundedLbl=1;backgroundOutline=1;size=15;labelBackgroundColor=#CCCCCC;fontSize=13;strokeColor=#666666;strokeWidth=1;fillColor=#CCCCCC;fontColor=#333333;" vertex="1" parent="1">
          <mxGeometry x="200" y="350" width="80" height="90" as="geometry" />
        </mxCell>
        <mxCell id="BsyIwO_-xOanRZQxcdga-14" value="&lt;div&gt;tinder geo40&lt;/div&gt;&lt;div&gt;shard 0&lt;/div&gt;&lt;div&gt;replica&lt;br&gt;&lt;/div&gt;" style="shape=cylinder3;whiteSpace=wrap;html=1;boundedLbl=1;backgroundOutline=1;size=15;labelBackgroundColor=#CCCCCC;fontSize=13;strokeColor=#666666;strokeWidth=1;fillColor=#CCCCCC;fontColor=#333333;" vertex="1" parent="1">
          <mxGeometry x="80" y="350" width="80" height="90" as="geometry" />
        </mxCell>
        <mxCell id="BsyIwO_-xOanRZQxcdga-16" value="&lt;div&gt;tinder geo11&lt;/div&gt;&lt;div&gt;shard 0&lt;/div&gt;&lt;div&gt;primary&lt;br&gt;&lt;/div&gt;" style="shape=cylinder3;whiteSpace=wrap;html=1;boundedLbl=1;backgroundOutline=1;size=15;labelBackgroundColor=#CCCCCC;fontSize=13;strokeColor=#666666;strokeWidth=1;fillColor=#CCCCCC;fontColor=#333333;" vertex="1" parent="1">
          <mxGeometry x="400" y="250" width="80" height="90" as="geometry" />
        </mxCell>
        <mxCell id="BsyIwO_-xOanRZQxcdga-17" value="&lt;div&gt;tinder geo20&lt;/div&gt;&lt;div&gt;shard 0&lt;/div&gt;&lt;div&gt;replica&lt;br&gt;&lt;/div&gt;" style="shape=cylinder3;whiteSpace=wrap;html=1;boundedLbl=1;backgroundOutline=1;size=15;labelBackgroundColor=#CCCCCC;fontSize=13;strokeColor=#666666;strokeWidth=1;fillColor=#CCCCCC;fontColor=#333333;" vertex="1" parent="1">
          <mxGeometry x="520" y="250" width="80" height="90" as="geometry" />
        </mxCell>
        <mxCell id="BsyIwO_-xOanRZQxcdga-18" value="&lt;div&gt;tinder geo10&lt;/div&gt;&lt;div&gt;shard 0&lt;/div&gt;&lt;div&gt;replica&lt;br&gt;&lt;/div&gt;" style="shape=cylinder3;whiteSpace=wrap;html=1;boundedLbl=1;backgroundOutline=1;size=15;labelBackgroundColor=#CCCCCC;fontSize=13;strokeColor=#666666;strokeWidth=1;fillColor=#CCCCCC;fontColor=#333333;" vertex="1" parent="1">
          <mxGeometry x="520" y="350" width="80" height="90" as="geometry" />
        </mxCell>
        <mxCell id="BsyIwO_-xOanRZQxcdga-19" value="&lt;div&gt;tinder geo17&lt;/div&gt;&lt;div&gt;shard 0&lt;/div&gt;&lt;div&gt;replica&lt;br&gt;&lt;/div&gt;" style="shape=cylinder3;whiteSpace=wrap;html=1;boundedLbl=1;backgroundOutline=1;size=15;labelBackgroundColor=#CCCCCC;fontSize=13;strokeColor=#666666;strokeWidth=1;fillColor=#CCCCCC;fontColor=#333333;" vertex="1" parent="1">
          <mxGeometry x="400" y="350" width="80" height="90" as="geometry" />
        </mxCell>
        <mxCell id="BsyIwO_-xOanRZQxcdga-20" value="" style="rounded=1;whiteSpace=wrap;html=1;labelBackgroundColor=none;fontSize=13;strokeColor=#000000;strokeWidth=1;fillColor=none;dashed=1;" vertex="1" parent="1">
          <mxGeometry x="60" y="210" width="580" height="250" as="geometry" />
        </mxCell>
        <mxCell id="BsyIwO_-xOanRZQxcdga-21" value="&lt;font style=&quot;font-size: 14px&quot;&gt;&lt;b&gt;ASG&lt;/b&gt;&lt;/font&gt;" style="text;html=1;strokeColor=none;fillColor=none;align=center;verticalAlign=middle;whiteSpace=wrap;rounded=0;dashed=1;labelBackgroundColor=none;fontSize=13;" vertex="1" parent="1">
          <mxGeometry x="320" y="70" width="60" height="30" as="geometry" />
        </mxCell>
        <mxCell id="BsyIwO_-xOanRZQxcdga-22" value="" style="endArrow=classic;html=1;rounded=0;fontSize=14;strokeColor=#000000;strokeWidth=2;exitX=0.138;exitY=0.875;exitDx=0;exitDy=0;exitPerimeter=0;" edge="1" parent="1" source="BsyIwO_-xOanRZQxcdga-9">
          <mxGeometry width="50" height="50" relative="1" as="geometry">
            <mxPoint x="370" y="260" as="sourcePoint" />
            <mxPoint x="180" y="240" as="targetPoint" />
          </mxGeometry>
        </mxCell>
        <mxCell id="BsyIwO_-xOanRZQxcdga-23" value="" style="endArrow=classic;html=1;rounded=0;fontSize=14;strokeColor=#000000;strokeWidth=2;entryX=0.741;entryY=0.12;entryDx=0;entryDy=0;entryPerimeter=0;" edge="1" parent="1" target="BsyIwO_-xOanRZQxcdga-20">
          <mxGeometry width="50" height="50" relative="1" as="geometry">
            <mxPoint x="150" y="170" as="sourcePoint" />
            <mxPoint x="180.20000000000005" y="240" as="targetPoint" />
          </mxGeometry>
        </mxCell>
        <mxCell id="BsyIwO_-xOanRZQxcdga-24" value="" style="endArrow=classic;html=1;rounded=0;fontSize=14;strokeColor=#000000;strokeWidth=2;exitX=0.828;exitY=0.875;exitDx=0;exitDy=0;exitPerimeter=0;entryX=0.776;entryY=0.12;entryDx=0;entryDy=0;entryPerimeter=0;" edge="1" parent="1" source="BsyIwO_-xOanRZQxcdga-9" target="BsyIwO_-xOanRZQxcdga-20">
          <mxGeometry width="50" height="50" relative="1" as="geometry">
            <mxPoint x="150.03999999999996" y="180" as="sourcePoint" />
            <mxPoint x="180.20000000000005" y="240" as="targetPoint" />
          </mxGeometry>
        </mxCell>
        <mxCell id="BsyIwO_-xOanRZQxcdga-25" value="" style="endArrow=classic;html=1;rounded=0;fontSize=14;strokeColor=#000000;strokeWidth=2;exitX=0.776;exitY=0.875;exitDx=0;exitDy=0;exitPerimeter=0;entryX=0.241;entryY=0.12;entryDx=0;entryDy=0;entryPerimeter=0;" edge="1" parent="1" source="BsyIwO_-xOanRZQxcdga-9" target="BsyIwO_-xOanRZQxcdga-20">
          <mxGeometry width="50" height="50" relative="1" as="geometry">
            <mxPoint x="550.24" y="180" as="sourcePoint" />
            <mxPoint x="520.0799999999999" y="250" as="targetPoint" />
          </mxGeometry>
        </mxCell>
        <mxCell id="BsyIwO_-xOanRZQxcdga-26" value="" style="endArrow=classic;html=1;rounded=0;fontSize=14;strokeColor=#000000;strokeWidth=2;startArrow=classic;startFill=1;" edge="1" parent="1">
          <mxGeometry width="50" height="50" relative="1" as="geometry">
            <mxPoint x="300" y="170" as="sourcePoint" />
            <mxPoint x="190" y="230" as="targetPoint" />
          </mxGeometry>
        </mxCell>
        <mxCell id="BsyIwO_-xOanRZQxcdga-27" value="" style="endArrow=classic;html=1;rounded=0;fontSize=14;strokeColor=#000000;strokeWidth=2;startArrow=classic;startFill=1;exitX=0.5;exitY=0.875;exitDx=0;exitDy=0;exitPerimeter=0;entryX=0.759;entryY=0.08;entryDx=0;entryDy=0;entryPerimeter=0;" edge="1" parent="1" source="BsyIwO_-xOanRZQxcdga-9" target="BsyIwO_-xOanRZQxcdga-20">
          <mxGeometry width="50" height="50" relative="1" as="geometry">
            <mxPoint x="310" y="180" as="sourcePoint" />
            <mxPoint x="200" y="240" as="targetPoint" />
          </mxGeometry>
        </mxCell>
        <mxCell id="BsyIwO_-xOanRZQxcdga-28" value="&lt;b&gt;&lt;font style=&quot;font-size: 14px&quot;&gt;Data Node 0&lt;br&gt;&lt;/font&gt;&lt;/b&gt;" style="text;html=1;strokeColor=none;fillColor=none;align=center;verticalAlign=middle;whiteSpace=wrap;rounded=0;dashed=1;labelBackgroundColor=none;fontSize=13;" vertex="1" parent="1">
          <mxGeometry x="140" y="460" width="90" height="30" as="geometry" />
        </mxCell>
        <mxCell id="BsyIwO_-xOanRZQxcdga-29" value="&lt;b&gt;&lt;font style=&quot;font-size: 14px&quot;&gt;Data Node N&lt;/font&gt;&lt;/b&gt;" style="text;html=1;strokeColor=none;fillColor=none;align=center;verticalAlign=middle;whiteSpace=wrap;rounded=0;dashed=1;labelBackgroundColor=none;fontSize=13;" vertex="1" parent="1">
          <mxGeometry x="455" y="460" width="90" height="30" as="geometry" />
        </mxCell>
      </root>
    </mxGraphModel>
  </diagram>
</mxfile>
